<svg width="118" height="34" viewBox="0 0 118 34" fill="none" xmlns="http://www.w3.org/2000/svg">
<path d="M46.958 13.1914L46.9492 13.0156V12.4707C46.9492 11.7148 46.9639 10.8477 46.9932 9.86914L46.9756 9.85156L47.4502 9.8252C48.9795 9.74316 49.9727 9.70215 50.4297 9.70215H54.5254C55.9258 9.70215 57.0889 9.99219 58.0146 10.5723C58.3428 10.8535 58.6094 11.2314 58.8145 11.7061C59.0195 12.1807 59.1221 12.7168 59.1221 13.3145C59.1221 14.4688 58.3486 15.4502 56.8018 16.2588C57.6748 16.499 58.3428 16.8857 58.8057 17.4189C59.2744 17.9463 59.5088 18.5938 59.5088 19.3613C59.5088 20.7207 58.8994 21.752 57.6807 22.4551C56.7842 22.9824 55.6504 23.2461 54.2793 23.2461L51.6602 23.2109C50.5293 23.2109 49.0293 23.2373 47.1602 23.29C46.9961 22.9443 46.9141 21.5762 46.9141 19.1855C46.9141 16.7949 46.9287 14.7969 46.958 13.1914ZM52.4248 20.5479C53.9424 20.5479 54.7012 20.0176 54.7012 18.957C54.7012 18.2832 54.4961 17.832 54.0859 17.6035C53.7168 17.4043 53.1514 17.293 52.3896 17.2695H52.1348L51.9766 17.7617C51.9355 18.3652 51.915 18.96 51.915 19.5459C51.915 20.126 51.9766 20.46 52.0996 20.5479H52.4248ZM54.3145 14.668C54.4316 14.4453 54.4902 14.1758 54.4902 13.8594C54.4902 13.2441 54.2705 12.8311 53.8311 12.6201C53.3916 12.4092 52.9316 12.3037 52.4512 12.3037C51.9707 12.3037 51.7305 12.4795 51.7305 12.8311C51.7305 13.458 51.7451 14.0996 51.7744 14.7559L51.792 15.2217C51.8037 15.4443 51.9326 15.5762 52.1787 15.6172L52.6094 15.5645C53.5 15.459 54.0684 15.1602 54.3145 14.668ZM64.7295 9.78125L67.5508 9.75488C68.1484 9.75488 68.6904 9.7666 69.1768 9.79004C70.4834 9.8252 71.4766 10.1328 72.1562 10.7129C72.8418 11.293 73.1846 12.1104 73.1846 13.165C73.1846 13.8975 72.9707 14.5244 72.543 15.0459C72.1152 15.5615 71.4912 16.0156 70.6709 16.4082C71.9717 16.8184 72.7598 17.8145 73.0352 19.3965C73.0996 19.7422 73.1494 20.1377 73.1846 20.583C73.2256 21.0283 73.2578 21.3271 73.2812 21.4795L73.3691 21.9277C73.4629 22.4551 73.5449 22.8359 73.6152 23.0703L73.5801 23.0967C72.584 23.1611 71.6729 23.1934 70.8467 23.1934C70.0264 23.1934 69.2998 23.1787 68.667 23.1494H68.6143C68.4326 23.1494 68.2393 22.2852 68.0342 20.5566L67.9902 20.1787C67.9668 19.5342 67.8525 19.1006 67.6475 18.8779C67.4482 18.6553 67.0996 18.5439 66.6016 18.5439L66.4873 18.5527H66.0215V21.2246L66.0303 21.5059V23.1143C66.0127 23.1729 65.9688 23.208 65.8984 23.2197C65.2539 23.2432 64.3428 23.2549 63.165 23.2549C61.9932 23.2549 61.2197 23.2578 60.8447 23.2637L60.792 23.2461L60.7744 23.2549C60.7627 23.2549 60.7451 23.2461 60.7217 23.2285L60.7393 22.4375L60.7305 22.1738L60.7656 18.5264V17.8848L60.7744 17.2256L60.7832 14.9492L60.792 14.6504L60.7656 12.6553C60.7656 12.6553 60.7773 11.7207 60.8008 9.85156C60.8008 9.80469 60.9678 9.78125 61.3018 9.78125L61.8643 9.79004H62.4004L63.5166 9.79883L64.7295 9.78125ZM73.668 23.0439L73.624 23.0703V23.0527C73.624 23.0469 73.6387 23.0439 73.668 23.0439ZM73.624 23.0703V23.0791C73.6182 23.0791 73.6152 23.0762 73.6152 23.0703H73.624ZM67.9814 12.6465C67.6299 12.4941 67.1611 12.418 66.5752 12.418H66.0654C66.001 12.5117 65.9688 13.0068 65.9688 13.9033C65.9688 14.7939 65.9834 15.3916 66.0127 15.6963C67.8467 15.6553 68.7637 15.0225 68.7637 13.7979C68.7637 13.2764 68.5029 12.8926 67.9814 12.6465ZM88.46 23.0967C88.4541 23.1729 88.293 23.2109 87.9766 23.2109H87.168L86.623 23.2197H86.0869L85.2344 23.2285C84.3848 23.2285 83.6787 23.208 83.1162 23.167C83.0986 23.1611 83.0781 23.126 83.0547 23.0615L83.0107 22.877C82.958 22.2734 82.8203 21.6904 82.5977 21.1279L78.8359 21.1631C78.8125 21.2627 78.7363 21.5586 78.6074 22.0508C78.4785 22.543 78.3818 22.915 78.3174 23.167C78.2588 23.2256 77.9805 23.2549 77.4824 23.2549L77.2627 23.2461H76.7529L74.4678 23.2988H74.2041L73.958 23.3076H73.3428C73.3018 23.2666 73.2578 23.2139 73.2109 23.1494C73.7969 21.1221 74.5908 18.6084 75.5928 15.6084L75.7949 14.9844H75.7861L76.0234 14.2549C76.0996 14.0205 76.3164 13.3701 76.6738 12.3037C77.0371 11.2373 77.2627 10.5488 77.3506 10.2383C77.4443 9.92773 77.5 9.7666 77.5176 9.75488H78.9766L82.0967 9.71094L82.9404 9.75488L83.6348 9.71094C83.9863 9.71094 84.1621 9.78125 84.1621 9.92188C84.748 11.5566 85.5303 13.9092 86.5088 16.9795C87.4873 20.0498 88.0381 21.7754 88.1611 22.1562L88.2842 22.5957C88.3252 22.7539 88.3838 22.9209 88.46 23.0967ZM79.7588 18.2979L80.1191 18.3066L82.2197 18.2979C82.1318 17.6006 82.0645 17.0879 82.0176 16.7598L81.6836 15.2568C81.332 13.7041 81.1504 12.9131 81.1387 12.8838C81.127 12.8545 81.1152 12.8281 81.1035 12.8047C81.0977 12.7754 81.0918 12.7578 81.0859 12.752C81.0801 12.7402 81.0713 12.7227 81.0596 12.6992C81.0537 12.6758 81.0449 12.6611 81.0332 12.6553C81.0273 12.6436 81.0186 12.6289 81.0068 12.6113C80.9658 12.541 80.8809 12.4795 80.752 12.4268C80.5938 12.4619 80.1221 14.2256 79.3369 17.7178L79.2402 18.2979H79.7588ZM102.259 16.8477L102.25 17.4365V20.6885L102.268 22.2354V22.6748L102.276 23.0879C102.241 23.1348 102.098 23.1582 101.846 23.1582H101.617L98.8574 23.1934C97.6855 23.1934 96.8125 23.1904 96.2383 23.1846C96.1504 23.0908 95.8311 22.2383 95.2803 20.627L93.6016 16.1709L93.2852 16.2148L93.2764 17.1113V19.4932L93.3115 21.875V22.8594C93.3115 23.123 93.2529 23.2607 93.1357 23.2725C92.5557 23.2549 92.002 23.2461 91.4746 23.2461H91.2021L89.875 23.2812H89.6992L89.0664 23.2988L89.04 23.2812C88.8467 23.0996 88.75 22.9678 88.75 22.8857V22.7275L88.7588 22.5518L88.8027 19.124C88.8027 15.3623 88.8379 12.5176 88.9082 10.5898L88.9258 9.86035C88.9258 9.80762 90.9443 9.76074 94.9814 9.71973C95.0166 9.74316 95.0693 9.87207 95.1396 10.1064V10.0801L95.1924 10.2559C95.626 11.498 96.1533 12.9248 96.7744 14.5361C97.3955 16.1416 97.7119 16.9619 97.7236 16.9971L98.0225 16.9795L98.0576 9.81641C98.0576 9.76953 98.4854 9.74609 99.3408 9.74609L101.547 9.79004H102.197C102.238 11.7295 102.259 14.082 102.259 16.8477ZM107.664 9.71094L109.308 9.68457C112.173 9.68457 114.186 10.1592 115.346 11.1084C115.592 11.29 115.861 11.5947 116.154 12.0225C117.004 13.2588 117.429 14.624 117.429 16.1182C117.429 18.7842 116.512 20.7559 114.678 22.0332C113.582 22.8008 112.322 23.1904 110.898 23.2021L110.863 23.2373H110.644L108.306 23.2109C107.245 23.2109 105.918 23.2373 104.324 23.29C104.213 23.0791 104.157 22.8301 104.157 22.543L104.166 22.2266V20.8555L104.184 18.9043V15.6875C104.172 14.9492 104.166 14.3984 104.166 14.0352V12.5938L104.175 12.3916V9.87793C104.175 9.83105 104.494 9.79297 105.133 9.76367C105.771 9.72852 106.281 9.71094 106.662 9.71094H107.664ZM111.391 12.752C111.057 12.5117 110.688 12.377 110.283 12.3477C110.143 12.3418 109.949 12.3359 109.703 12.3301C109.463 12.3242 109.287 12.3184 109.176 12.3125C109.07 12.4707 109 12.5879 108.965 12.6641L108.807 12.9893V13.4814C108.807 14.4951 108.83 15.8691 108.877 17.6035L108.93 20.1436C108.965 20.3252 109.082 20.4336 109.281 20.4688C109.885 20.457 110.351 20.416 110.679 20.3457C111.833 19.9355 112.41 18.5322 112.41 16.1357C112.41 14.3604 112.07 13.2324 111.391 12.752Z" fill="black"/>
<rect width="34" height="34" fill="black"/>
<path d="M10.958 13.1914L10.9492 13.0156V12.4707C10.9492 11.7148 10.9639 10.8477 10.9932 9.86914L10.9756 9.85156L11.4502 9.8252C12.9795 9.74316 13.9727 9.70215 14.4297 9.70215H18.5254C19.9258 9.70215 21.0889 9.99219 22.0146 10.5723C22.3428 10.8535 22.6094 11.2314 22.8145 11.7061C23.0195 12.1807 23.1221 12.7168 23.1221 13.3145C23.1221 14.4688 22.3486 15.4502 20.8018 16.2588C21.6748 16.499 22.3428 16.8857 22.8057 17.4189C23.2744 17.9463 23.5088 18.5938 23.5088 19.3613C23.5088 20.7207 22.8994 21.752 21.6807 22.4551C20.7842 22.9824 19.6504 23.2461 18.2793 23.2461L15.6602 23.2109C14.5293 23.2109 13.0293 23.2373 11.1602 23.29C10.9961 22.9443 10.9141 21.5762 10.9141 19.1855C10.9141 16.7949 10.9287 14.7969 10.958 13.1914ZM16.4248 20.5479C17.9424 20.5479 18.7012 20.0176 18.7012 18.957C18.7012 18.2832 18.4961 17.832 18.0859 17.6035C17.7168 17.4043 17.1514 17.293 16.3896 17.2695H16.1348L15.9766 17.7617C15.9355 18.3652 15.915 18.96 15.915 19.5459C15.915 20.126 15.9766 20.46 16.0996 20.5479H16.4248ZM18.3145 14.668C18.4316 14.4453 18.4902 14.1758 18.4902 13.8594C18.4902 13.2441 18.2705 12.8311 17.8311 12.6201C17.3916 12.4092 16.9316 12.3037 16.4512 12.3037C15.9707 12.3037 15.7305 12.4795 15.7305 12.8311C15.7305 13.458 15.7451 14.0996 15.7744 14.7559L15.792 15.2217C15.8037 15.4443 15.9326 15.5762 16.1787 15.6172L16.6094 15.5645C17.5 15.459 18.0684 15.1602 18.3145 14.668Z" fill="white"/>
</svg>
