<svg width="376" height="181" viewBox="0 0 376 181" fill="none" xmlns="http://www.w3.org/2000/svg">
<path d="M199.398 89.4392C199.461 94.8386 199.525 100.238 172.516 101.669C145.506 103.1 91.422 100.4 58.7172 94.0875C26.0123 87.775 16.326 77.9323 10.7703 71.419C-0.745901 57.9178 0.390746 43.0222 2.00387 31.3149C2.77945 25.6861 10.3104 20.8142 17.8931 16.0205C23.3765 12.554 38.8484 12.615 60.0411 12.4962C83.7266 12.3635 98.3689 20.0098 112.361 29.6093C121.732 36.0379 125.045 49.7305 126.245 62.2429C127.023 70.3555 124.09 81.3254 121.168 95.4351C114.97 125.375 119.971 141.629 126.286 153.457C131.66 163.52 149.58 173.211 169.374 178.276C183.421 181.87 203.403 175.492 222.957 167.422C238.281 161.098 245.417 149.919 250.449 141.273C255.784 132.105 257.935 119.784 259.409 106.899C262.351 81.1789 252.051 61.716 241.893 49.949C231.013 37.3455 218.893 36.7146 209.696 36.9641C191.877 37.4474 180.967 52.4488 170.537 65.1695C165.183 71.6997 166.302 79.8808 166.727 85.0332C167.527 94.7195 176.612 103.443 195.628 117.614C204.135 123.953 214.138 127.023 226.035 130.545C241.084 135.001 257.026 135.854 272.419 135.01C291.003 133.991 304.795 125.74 312.594 117.612C321.915 107.897 324.18 95.2217 324.978 83.296C326.171 65.4545 321.665 49.6127 317.03 40.7302C313.506 33.9763 304.898 28.8968 292.557 23.0212C277.703 15.9487 264.636 17.9874 258.558 20.4213C250.965 23.4616 245.21 34.0838 240.002 46.3648C234.662 58.9613 239.24 75.4384 245.373 89.9865C249.778 100.436 261.659 104.248 273.491 107.128C284.405 109.784 298.359 106.36 316.132 100.73C337.014 94.1158 353.204 83.8259 363.226 74.754C372.785 66.1001 374.591 52.659 374.315 40.6834C374.036 28.5454 365.072 19.1045 356.745 12.1812C342.471 0.312884 330.019 0.669117 317.98 1.2025C314 1.79185 311.348 2.32318 278.279 4.08838C246.49 5.64291 184.231 8.53491 120.085 11.5145" stroke="black" stroke-width="2" stroke-linecap="round"/>
<path d="M283.367 57.5234C280.118 58.189 276.868 58.8545 234.833 62.7206C192.797 66.5867 112.073 73.6331 29.1836 80.8931" stroke="black" stroke-width="2" stroke-linecap="round"/>
<path d="M282.636 123.967C279.615 124.225 276.594 124.484 236.992 128.308C197.391 132.132 121.3 139.514 75.6189 144.695C29.9377 149.877 16.9716 152.635 4.45898 155.191" stroke="black" stroke-width="2" stroke-linecap="round"/>
</svg>
